# xmcd
#
# Track frame offsets: 
#        150
#        16185
#        32730
#        46306
#        60394
#        74405
#        87279
#        100437
#        114483
#        129200
#        143269
#        156243
#        170753
#        183918
#        196916
#        209757
#        223584
#        236267
#
# Disc length: 3339 seconds
#
# Revision: 0
# Processed by: cddbd v1.5.2PL0 Copyright (c) Steve Scherf et al.
# Submitted via: ExactAudioCopy v0.99pb5
#
DISCID=f50d0912
DTITLE=Bumble Bee Slim - From Georgia To Chicago 1931 - 1937
DYEAR=1900
DGENRE=
TTITLE0=No woman no nickel
TTITLE1=Chain gang bound
TTITLE2=Greazy greens
TTITLE3=B and o blues
TTITLE4=Dead and gone mother
TTITLE5=Policy dream blues
TTITLE6=If the blues was whiskey
TTITLE7=I m needing someone
TTITLE8=smoky mountain blues
TTITLE9=Sail on sail on blues
TTITLE10=Fattening frogs for snakes
TTITLE11=My old pal blues
TTITLE12=Sloppy drunk blues
TTITLE13=When somebody loses (then somebody wins)
TTITLE14=This old life i m living
TTITLE15=Dumb tricks blues
TTITLE16=You got to live and let live
TTITLE17=I done caught my death of cold
EXTD=
EXTT0=
EXTT1=
EXTT2=
EXTT3=
EXTT4=
EXTT5=
EXTT6=
EXTT7=
EXTT8=
EXTT9=
EXTT10=
EXTT11=
EXTT12=
EXTT13=
EXTT14=
EXTT15=
EXTT16=
EXTT17=
PLAYORDER=
